# Blender 4.5.3 LTS
# www.blender.org
mtllib hook.mtl
o Plane
v 0.250000 -0.062500 0.000000
v 0.250000 0.062500 -0.000000
v 0.125000 0.062500 -0.062500
v 0.125000 0.062500 0.062500
v 0.187500 0.062500 0.125000
v 0.312500 0.062500 0.125000
v 0.375000 0.062500 0.062500
v 0.375000 0.062500 -0.062500
v 0.312500 0.062500 -0.125000
v 0.187500 0.062500 -0.125000
v 0.125000 -0.062500 -0.062500
v 0.125000 -0.062500 0.062500
v 0.187500 -0.062500 0.125000
v 0.312500 -0.062500 0.125000
v 0.375000 -0.062500 0.062500
v 0.375000 -0.062500 -0.062500
v 0.312500 -0.062500 -0.125000
v 0.187500 -0.062500 -0.125000
vn 0.7071 -0.0000 0.7071
vn -0.7071 -0.0000 0.7071
vn -0.0000 -0.0000 -1.0000
vn 1.0000 -0.0000 -0.0000
vn -0.0000 -0.0000 1.0000
vn -1.0000 -0.0000 -0.0000
vn -0.7071 -0.0000 -0.7071
vn 0.7071 -0.0000 -0.7071
vn -0.0000 1.0000 -0.0000
vn -0.0000 -1.0000 -0.0000
vt 0.750000 0.000000
vt 1.000000 0.250000
vt 0.000000 0.250000
vt 0.250000 0.000000
vt 0.750000 1.000000
vt 0.250000 1.000000
vt 1.000000 0.750000
vt 0.000000 0.750000
vt 0.427501 0.428525
vt 0.572499 0.571475
vt 0.428525 0.572499
vt 0.571476 0.427501
vt 0.590837 0.419481
vt 0.580519 0.590837
vt 0.409163 0.580519
vt 0.419481 0.409163
s 1
f 14/1/1 15/2/1 7/2/1 6/1/1
f 12/3/2 13/4/2 5/4/2 4/3/2
f 17/5/3 18/6/3 10/6/3 9/5/3
f 15/2/4 16/7/4 8/7/4 7/2/4
f 13/4/5 14/1/5 6/1/5 5/4/5
f 11/8/6 12/3/6 4/3/6 3/8/6
f 18/6/7 11/8/7 3/8/7 10/6/7
f 16/7/8 17/5/8 9/5/8 8/7/8
f 6/1/9 7/2/9 2/9/9 5/4/9
f 10/6/9 3/8/9 2/10/9 9/5/9
f 4/3/9 5/4/9 2/11/9 3/8/9
f 8/7/9 9/5/9 2/12/9 7/2/9
f 1/13/10 15/2/10 14/1/10 13/4/10
f 1/14/10 17/5/10 16/7/10 15/2/10
f 1/15/10 11/8/10 18/6/10 17/5/10
f 1/16/10 13/4/10 12/3/10 11/8/10
o Plane.001
v -0.250000 -0.062500 0.000000
v -0.250000 0.062500 -0.000000
v -0.125000 0.062500 -0.062500
v -0.125000 0.062500 0.062500
v -0.187500 0.062500 0.125000
v -0.312500 0.062500 0.125000
v -0.375000 0.062500 0.062500
v -0.375000 0.062500 -0.062500
v -0.312500 0.062500 -0.125000
v -0.187500 0.062500 -0.125000
v -0.125000 -0.062500 -0.062500
v -0.125000 -0.062500 0.062500
v -0.187500 -0.062500 0.125000
v -0.312500 -0.062500 0.125000
v -0.375000 -0.062500 0.062500
v -0.375000 -0.062500 -0.062500
v -0.312500 -0.062500 -0.125000
v -0.187500 -0.062500 -0.125000
vn -0.7071 -0.0000 0.7071
vn 0.7071 -0.0000 0.7071
vn -0.0000 -0.0000 -1.0000
vn -1.0000 -0.0000 -0.0000
vn -0.0000 -0.0000 1.0000
vn 1.0000 -0.0000 -0.0000
vn 0.7071 -0.0000 -0.7071
vn -0.7071 -0.0000 -0.7071
vn -0.0000 1.0000 -0.0000
vn -0.0000 -1.0000 -0.0000
vt 0.750000 0.000000
vt 1.000000 0.250000
vt 0.000000 0.250000
vt 0.250000 0.000000
vt 0.750000 1.000000
vt 0.250000 1.000000
vt 1.000000 0.750000
vt 0.000000 0.750000
vt 0.427501 0.428525
vt 0.572499 0.571475
vt 0.428525 0.572499
vt 0.571476 0.427501
vt 0.590837 0.419481
vt 0.580519 0.590837
vt 0.409163 0.580519
vt 0.419481 0.409163
s 1
f 32/17/11 24/17/11 25/18/11 33/18/11
f 30/19/12 22/19/12 23/20/12 31/20/12
f 35/21/13 27/21/13 28/22/13 36/22/13
f 33/18/14 25/18/14 26/23/14 34/23/14
f 31/20/15 23/20/15 24/17/15 32/17/15
f 29/24/16 21/24/16 22/19/16 30/19/16
f 36/22/17 28/22/17 21/24/17 29/24/17
f 34/23/18 26/23/18 27/21/18 35/21/18
f 24/17/19 23/20/19 20/25/19 25/18/19
f 28/22/19 27/21/19 20/26/19 21/24/19
f 22/19/19 21/24/19 20/27/19 23/20/19
f 26/23/19 25/18/19 20/28/19 27/21/19
f 19/29/20 31/20/20 32/17/20 33/18/20
f 19/30/20 33/18/20 34/23/20 35/21/20
f 19/31/20 35/21/20 36/22/20 29/24/20
f 19/32/20 29/24/20 30/19/20 31/20/20
o Plane.002
v 0.125000 -0.015000 0.050000
v 0.375000 -0.015000 0.050000
v 0.025000 -1.515000 0.050000
v 0.275000 -1.515000 0.050000
v -0.275000 -1.515000 0.050000
v -0.375000 -0.015000 0.050000
v -0.125000 -0.015000 0.050000
v -0.025000 -1.515000 0.050000
v 0.325000 -0.565000 0.050000
v -0.325000 -0.565000 0.050000
v 0.575000 -0.565000 0.050000
v -0.575000 -0.565000 0.050000
v 0.125000 -0.015000 -0.050000
v 0.375000 -0.015000 -0.050000
v 0.025000 -1.515000 -0.050000
v 0.275000 -1.515000 -0.050000
v -0.275000 -1.515000 -0.050000
v -0.375000 -0.015000 -0.050000
v -0.125000 -0.015000 -0.050000
v -0.025000 -1.515000 -0.050000
v 0.325000 -0.565000 -0.050000
v -0.325000 -0.565000 -0.050000
v 0.575000 -0.565000 -0.050000
v -0.575000 -0.565000 -0.050000
vn -0.0000 -0.0000 1.0000
vn -0.0000 -0.0000 -1.0000
vn -0.0000 -1.0000 -0.0000
vn 0.9536 -0.3011 -0.0000
vn -0.9536 0.3011 -0.0000
vn -0.0000 1.0000 -0.0000
vn -0.9536 -0.3011 -0.0000
vn -0.9398 -0.3417 -0.0000
vn -0.9398 0.3417 -0.0000
vn 0.9398 -0.3417 -0.0000
vn 0.9398 0.3417 -0.0000
vn 0.9536 0.3011 -0.0000
vt 1.000000 0.000000
vt 0.000000 0.000000
vt 0.000000 0.500000
vt 1.000000 0.500000
vt 0.000000 1.000000
vt 1.000000 1.000000
s 1
f 43/33/21 42/34/21 48/35/21 46/36/21
f 45/35/21 39/37/21 40/38/21 47/36/21
f 37/34/21 45/35/21 47/36/21 38/33/21
f 48/35/21 41/37/21 44/38/21 46/36/21
f 55/33/22 58/36/22 60/35/22 54/34/22
f 57/35/22 59/36/22 52/38/22 51/37/22
f 49/34/22 50/33/22 59/36/22 57/35/22
f 60/35/22 58/36/22 56/38/22 53/37/22
f 44/38/23 41/37/23 53/37/23 56/38/23
f 40/38/24 52/38/24 59/36/24 47/36/24
f 39/37/23 51/37/23 52/38/23 40/38/23
f 45/35/25 57/35/25 51/37/25 39/37/25
f 42/34/26 43/33/26 55/33/26 54/34/26
f 41/37/27 48/35/27 60/35/27 53/37/27
f 37/34/28 49/34/28 57/35/28 45/35/28
f 38/33/26 50/33/26 49/34/26 37/34/26
f 48/35/29 42/34/29 54/34/29 60/35/29
f 43/33/30 46/36/30 58/36/30 55/33/30
f 47/36/31 59/36/31 50/33/31 38/33/31
f 46/36/32 44/38/32 56/38/32 58/36/32
